<?xml version="1.0" encoding="UTF-8"?>
<svg id="Capa_2" data-name="Capa 2" xmlns="http://www.w3.org/2000/svg" viewBox="0 0 367.53 109.59">
  <defs>
    <style>
      .cls-1 {
        fill: #fff;
        stroke-width: 0px;
      }
    </style>
  </defs>
  <g id="Capa_1-2" data-name="Capa 1-2">
    <path class="cls-1" d="m362.42,63.43c-3.14-4.27-4.69-8.81-16.57-12.26h-.02c3.29-1.34,6.69-3.58,9.6-8.24,2.64-4.22,5.19-8.22,5.56-13.42.58-8.05-1.65-16.42-8.82-22.43-7.09-5.94-12.08-7.67-28.76-6.9l-55.51.19c-1.85,0-3.35,1.51-3.35,3.36v101.65c0,1.86,1.52,3.37,3.38,3.36l56.64-.25c14.01,0,21.67,2.3,33.36-7.48,6.79-5.68,9.78-14.19,9.59-21.46-.16-5.99-1.96-11.85-5.09-16.13h0Zm-63.86-32.63c0-1.83,1.47-3.33,3.3-3.36l13.31-.24c3.87,0,6.24.46,8.04,1.73,1.79,1.28,3.2,3.71,3.2,6.26s-.79,4.15-2.18,5.67c-1.51,1.64-3.37,1.9-7.24,1.9l-18.43.24v-12.21h0Zm29.98,49.67c-1.61,1.69-3.27,1.95-7.04,1.95h-19.58c-1.86,0-3.36-1.51-3.36-3.37v-12.82l22.56-.3c3.77,0,5.88,1.12,7.68,2.61,1.81,1.5,2.03,2.92,2.41,5.33.41,2.62.13,3.68-2.67,6.6Z"/>
    <path class="cls-1" d="m.16,81.23l-.16,24.66c0,2.04,1.64,3.69,3.67,3.69l37.59-.07c2.02,0,3.66-1.65,3.66-3.67l-.03-45.02c0-2.78-2.98-4.55-5.43-3.22L2.07,78.04c-1.17.64-1.9,1.86-1.91,3.2h0Z"/>
    <path class="cls-1" d="m89.02,30.66l-36.57,19.83c-1.41.77-2.29,2.24-2.3,3.85l-.18,50.84c0,2.43,1.96,4.41,4.39,4.41h36.75c2.43,0,4.39-1.97,4.39-4.39V34.52c0-3.33-3.56-5.45-6.49-3.86h0Z"/>
    <path class="cls-1" d="m101.9,23.47c24.46-12.91,28.92-15.52,38.56-20.87,1.51-.84,3.36.25,3.36,1.97,0,7.62.1,13.08.09,21.01,0,1.25-1.02,2.26-2.27,2.26-12.9-.04-25.8-.07-38.7-.11-1.06,0-1.97-.74-2.2-1.77h0c-.22-.99.25-2.01,1.15-2.49h0Z"/>
    <rect class="cls-1" x="100.92" y="34.03" width="42.91" height="75.08" rx="7.29" ry="7.29"/>
    <path class="cls-1" d="m251.3,49.02h-22.49l-18.13.06h-3.88c-1.06,0-1.92.87-1.92,1.93v15.66c0,1.23.99,2.22,2.22,2.22h15.54c.66,0,1.13.51,1.17,1.08.03.29-.05.6-.28.86-3.2,3.77-7.5,6.58-12.41,7.91-1.99.54-4.07.83-6.22.86h-.29c-2.2,0-4.33-.29-6.36-.83-6.49-1.72-11.93-6-15.18-11.7-.21-.36-.4-.73-.59-1.1-.14-.29-.29-.59-.42-.88-.03-.06-.05-.11-.08-.17-1.25-2.79-2-5.87-2.13-9.1v-.13c0-.23-.04-.49-.04-.73v-.66c0-1.77.19-3.49.53-5.15.36-1.67.88-3.28,1.55-4.8.15-.34.3-.67.46-1,1.46-2.96,3.49-5.58,5.95-7.73.77-.67,1.58-1.3,2.43-1.87,2.45-1.65,5.2-2.88,8.16-3.58,1.83-.43,3.74-.66,5.7-.66h.29c1.81.02,3.58.24,5.28.63,2.96.68,5.72,1.89,8.18,3.53.85.57,1.66,1.19,2.44,1.85.17.15.35.31.52.46.09.08.18.16.27.25.12.11.23.22.35.33.06.06.12.12.18.18.12.12.25.24.36.37.08.08.15.16.23.24.34.36.66.72.97,1.1.05.06.09.11.14.17.12.15.25.3.36.45.05.06.1.13.15.2.03.03.05.07.08.1.5.66,1.39.87,2.11.47l.88-.49,2.61-1.44,7.84-4.32,10.86-5.98c.49-.27.78-.75.84-1.26-.04-.2-.11-.39-.23-.57-4.85-7.43-11.48-13.59-19.28-17.88-7.47-4.11-16.02-6.49-25.11-6.64h-.86c-20.04,0-37.53,10.92-46.85,27.13-1.1,1.91-2.09,3.91-2.95,5.96-1.29,3.06-2.3,6.26-3.01,9.58-.37,1.73-.66,3.5-.86,5.29-.22,1.92-.33,3.88-.34,5.86v.19c0,.73,0,1.46.04,2.18,0,.12,0,.23.02.35.17,3.02.58,5.97,1.22,8.83.96,4.29,2.44,8.4,4.36,12.24.31.63.64,1.26.98,1.87.38.7.78,1.39,1.19,2.06,9.48,15.57,26.61,25.97,46.17,25.97h.86c9.09-.14,17.64-2.53,25.11-6.64,8.4-4.62,15.43-11.4,20.36-19.6.41-.68.8-1.37,1.18-2.07.25-.45.48-.91.71-1.37.11-.23.17-.48.17-.74v.39s0-.03.02-.04v-9.84h.03v-18.7c0-.65-.53-1.17-1.17-1.17v.03Zm-23.6,14.28c-.04.09-.07.18-.11.27.07-.19.11-.39.11-.6v.32h0Z"/>
  </g>
</svg>