<?xml version="1.0" encoding="UTF-8"?>
<svg id="Capa_2" data-name="Capa 2" xmlns="http://www.w3.org/2000/svg" viewBox="0 0 367.53 139.31">
  <defs>
    <style>
      .cls-1 {
        fill: #683589;
      }

      .cls-1, .cls-2, .cls-3, .cls-4, .cls-5 {
        stroke-width: 0px;
      }

      .cls-2 {
        fill: #f9bb5b;
      }

      .cls-3 {
        fill: #565555;
      }

      .cls-4 {
        fill: #f08b50;
      }

      .cls-5 {
        fill: #1f4f9a;
      }
    </style>
  </defs>
  <g id="Capa_1-2" data-name="Capa 1">
    <g>
      <path class="cls-3" d="m44.02,139.04v-13.66h3.86v13.66h-3.86Z"/>
      <path class="cls-3" d="m57.35,128.28c.82,0,1.56.17,2.22.5.66.33,1.19.84,1.57,1.53.38.69.58,1.58.58,2.67v6.05h-3.71v-5.45c0-.75-.15-1.3-.46-1.65-.31-.34-.73-.52-1.28-.52-.39,0-.75.09-1.07.26-.33.18-.58.45-.76.81-.18.36-.27.84-.27,1.42v5.11h-3.71v-10.58h3.53v3.01l-.68-.88c.4-.77.96-1.34,1.66-1.73.7-.38,1.5-.58,2.38-.58Z"/>
      <path class="cls-3" d="m66.8,139.04l-4.35-10.58h3.81l3.47,8.84h-1.91l3.65-8.84h3.53l-4.37,10.58h-3.83Z"/>
      <path class="cls-3" d="m81.2,139.21c-1.25,0-2.34-.24-3.27-.71-.93-.48-1.65-1.13-2.17-1.95-.51-.83-.77-1.77-.77-2.82s.25-1.99.75-2.82c.5-.83,1.19-1.47,2.08-1.93.88-.46,1.88-.69,2.99-.69,1.04,0,1.99.21,2.85.63.86.42,1.54,1.04,2.05,1.86.51.82.76,1.81.76,2.99,0,.13,0,.28-.02.45-.01.17-.03.33-.04.47h-8.37v-1.95h6.4l-1.41.55c.01-.48-.08-.9-.26-1.25-.19-.35-.45-.62-.78-.82s-.72-.29-1.16-.29-.83.1-1.16.29-.59.47-.77.83c-.18.36-.27.78-.27,1.26v.57c0,.52.11.97.32,1.35.21.38.52.67.93.87s.88.3,1.44.3c.52,0,.97-.07,1.34-.22.37-.15.74-.38,1.1-.69l1.95,2.03c-.51.56-1.13.99-1.87,1.28-.74.29-1.62.44-2.63.44Z"/>
      <path class="cls-3" d="m88.19,139.04v-10.58h3.53v3.08l-.53-.88c.31-.79.82-1.39,1.52-1.79.7-.4,1.55-.6,2.56-.6v3.34c-.17-.03-.32-.04-.44-.05-.12,0-.26,0-.4,0-.75,0-1.37.21-1.83.62-.47.41-.7,1.08-.7,2v4.86h-3.71Z"/>
      <path class="cls-3" d="m100.68,139.21c-.9,0-1.77-.1-2.62-.31-.85-.21-1.54-.47-2.06-.78l1.11-2.54c.49.3,1.07.54,1.74.71s1.31.26,1.95.26,1.06-.06,1.3-.2c.24-.13.36-.31.36-.53,0-.21-.11-.36-.34-.46-.23-.1-.53-.17-.9-.22-.37-.05-.78-.11-1.22-.18-.44-.06-.89-.15-1.34-.26-.45-.11-.86-.28-1.23-.51-.37-.23-.67-.54-.89-.93-.22-.39-.33-.88-.33-1.48,0-.68.2-1.28.6-1.81.4-.53.98-.94,1.75-1.25.77-.31,1.7-.46,2.81-.46.74,0,1.49.08,2.25.22.76.15,1.4.37,1.92.67l-1.11,2.52c-.52-.3-1.04-.5-1.56-.61-.52-.11-1.01-.17-1.48-.17-.62,0-1.06.07-1.32.21-.25.14-.38.32-.38.53s.11.37.33.48c.22.11.52.19.89.25s.78.12,1.22.18c.44.06.89.15,1.34.26.45.12.86.29,1.23.52s.67.53.89.92c.22.38.33.88.33,1.47,0,.65-.2,1.24-.6,1.76-.4.52-.98.94-1.76,1.25-.77.31-1.73.47-2.88.47Z"/>
      <path class="cls-3" d="m109.36,127.29c-.68,0-1.22-.19-1.64-.57-.42-.38-.62-.85-.62-1.41s.21-1.03.62-1.41c.42-.38.96-.57,1.64-.57s1.22.18,1.64.54c.42.36.62.82.62,1.38s-.21,1.07-.61,1.45c-.41.38-.96.58-1.65.58Zm-1.85,11.75v-10.58h3.71v10.58h-3.71Z"/>
      <path class="cls-3" d="m118.92,139.21c-1.16,0-2.19-.23-3.08-.7-.9-.47-1.6-1.12-2.12-1.94-.51-.83-.77-1.77-.77-2.84s.26-2.01.77-2.83c.51-.82,1.22-1.46,2.12-1.92.9-.46,1.93-.69,3.08-.69s2.19.23,3.09.69c.9.46,1.61,1.1,2.12,1.92.51.82.76,1.76.76,2.83s-.25,2.01-.76,2.84c-.51.83-1.21,1.47-2.12,1.94-.9.47-1.94.7-3.09.7Zm0-2.95c.43,0,.81-.1,1.14-.29.33-.2.6-.48.79-.87.2-.38.29-.84.29-1.38s-.1-.99-.29-1.36c-.2-.37-.46-.65-.79-.85-.33-.2-.71-.29-1.14-.29s-.79.1-1.12.29c-.33.19-.6.48-.8.85-.2.37-.3.82-.3,1.36s.1.99.3,1.38c.2.38.47.67.8.87.33.19.71.29,1.12.29Z"/>
      <path class="cls-3" d="m133.5,128.28c.82,0,1.56.17,2.22.5.66.33,1.19.84,1.57,1.53.38.69.58,1.58.58,2.67v6.05h-3.71v-5.45c0-.75-.15-1.3-.46-1.65-.31-.34-.73-.52-1.28-.52-.39,0-.75.09-1.07.26-.33.18-.58.45-.76.81-.18.36-.27.84-.27,1.42v5.11h-3.71v-10.58h3.53v3.01l-.68-.88c.4-.77.96-1.34,1.66-1.73.7-.38,1.5-.58,2.38-.58Z"/>
      <path class="cls-3" d="m145.88,139.21c-1.25,0-2.34-.24-3.27-.71-.93-.48-1.65-1.13-2.17-1.95-.51-.83-.77-1.77-.77-2.82s.25-1.99.75-2.82c.5-.83,1.19-1.47,2.08-1.93.88-.46,1.88-.69,2.99-.69,1.04,0,1.99.21,2.85.63.86.42,1.54,1.04,2.05,1.86.51.82.76,1.81.76,2.99,0,.13,0,.28-.02.45-.01.17-.03.33-.04.47h-8.37v-1.95h6.4l-1.41.55c.01-.48-.08-.9-.26-1.25-.19-.35-.45-.62-.78-.82s-.72-.29-1.16-.29-.83.1-1.16.29-.59.47-.77.83c-.18.36-.27.78-.27,1.26v.57c0,.52.11.97.32,1.35.21.38.52.67.93.87s.88.3,1.44.3c.52,0,.97-.07,1.34-.22.37-.15.74-.38,1.1-.69l1.95,2.03c-.51.56-1.13.99-1.87,1.28-.74.29-1.62.44-2.63.44Z"/>
      <path class="cls-3" d="m156.71,139.21c-.9,0-1.77-.1-2.62-.31-.85-.21-1.54-.47-2.06-.78l1.11-2.54c.49.3,1.07.54,1.74.71s1.31.26,1.95.26,1.06-.06,1.3-.2c.24-.13.36-.31.36-.53,0-.21-.11-.36-.34-.46-.23-.1-.53-.17-.9-.22-.37-.05-.78-.11-1.22-.18-.44-.06-.89-.15-1.34-.26-.45-.11-.86-.28-1.23-.51-.37-.23-.67-.54-.89-.93-.22-.39-.33-.88-.33-1.48,0-.68.2-1.28.6-1.81.4-.53.98-.94,1.75-1.25.77-.31,1.7-.46,2.81-.46.74,0,1.49.08,2.25.22.76.15,1.4.37,1.92.67l-1.11,2.52c-.52-.3-1.04-.5-1.56-.61-.52-.11-1.01-.17-1.48-.17-.62,0-1.06.07-1.32.21-.25.14-.38.32-.38.53s.11.37.33.48c.22.11.52.19.89.25s.78.12,1.22.18c.44.06.89.15,1.34.26.45.12.86.29,1.23.52s.67.53.89.92c.22.38.33.88.33,1.47,0,.65-.2,1.24-.6,1.76-.4.52-.98.94-1.76,1.25-.77.31-1.73.47-2.88.47Z"/>
      <path class="cls-3" d="m176.22,139.31c-1.08,0-2.08-.17-3.01-.52-.92-.34-1.72-.84-2.39-1.47s-1.19-1.39-1.57-2.25c-.38-.87-.57-1.82-.57-2.86s.19-1.99.57-2.86c.38-.87.9-1.62,1.58-2.25.68-.64,1.48-1.13,2.41-1.47.93-.34,1.95-.52,3.05-.52,1.29,0,2.44.21,3.45.64,1.01.43,1.85,1.05,2.52,1.85l-2.46,2.22c-.47-.51-.97-.89-1.51-1.14-.54-.25-1.14-.38-1.81-.38-.59,0-1.12.09-1.6.27-.48.18-.89.45-1.23.79-.34.34-.6.75-.79,1.23-.19.48-.28,1.01-.28,1.61s.09,1.1.28,1.58c.19.48.45.89.79,1.24.34.34.74.61,1.22.8.47.19,1,.28,1.57.28s1.13-.09,1.68-.28c.55-.19,1.1-.51,1.66-.97l2.17,2.71c-.78.56-1.69.99-2.71,1.29-1.03.3-2.04.45-3.03.45Zm2.32-2.24v-5.15h3.42v5.66l-3.42-.51Z"/>
      <path class="cls-3" d="m189.55,139.21c-1.16,0-2.19-.23-3.08-.7-.9-.47-1.6-1.12-2.12-1.94-.51-.83-.77-1.77-.77-2.84s.26-2.01.77-2.83c.51-.82,1.22-1.46,2.12-1.92.9-.46,1.93-.69,3.08-.69s2.19.23,3.09.69c.9.46,1.61,1.1,2.12,1.92.51.82.76,1.76.76,2.83s-.25,2.01-.76,2.84c-.51.83-1.21,1.47-2.12,1.94-.9.47-1.94.7-3.09.7Zm0-2.95c.43,0,.81-.1,1.14-.29.33-.2.6-.48.79-.87.2-.38.29-.84.29-1.38s-.1-.99-.29-1.36c-.2-.37-.46-.65-.79-.85-.33-.2-.71-.29-1.14-.29s-.79.1-1.12.29c-.33.19-.6.48-.8.85-.2.37-.3.82-.3,1.36s.1.99.3,1.38c.2.38.47.67.8.87.33.19.71.29,1.12.29Zm-1.95-9.08l2.62-2.97h3.71l-3.67,2.97h-2.65Z"/>
      <path class="cls-3" d="m211.02,128.28c.82,0,1.55.17,2.2.5.64.33,1.15.84,1.52,1.53.37.69.56,1.58.56,2.67v6.05h-3.71v-5.45c0-.75-.14-1.3-.43-1.65-.29-.34-.68-.52-1.17-.52-.35,0-.67.08-.96.25-.29.17-.51.43-.66.77-.16.34-.23.79-.23,1.34v5.25h-3.71v-5.45c0-.75-.14-1.3-.42-1.65-.28-.34-.67-.52-1.18-.52-.36,0-.69.08-.97.25-.28.17-.5.43-.66.77-.16.34-.24.79-.24,1.34v5.25h-3.71v-10.58h3.53v2.95l-.7-.84c.39-.75.92-1.32,1.6-1.71.68-.38,1.43-.58,2.26-.58.95,0,1.79.24,2.51.73.72.49,1.21,1.25,1.45,2.27l-1.21-.25c.38-.86.95-1.53,1.71-2.02.76-.49,1.64-.73,2.62-.73Z"/>
      <path class="cls-3" d="m223.32,139.21c-1.25,0-2.34-.24-3.27-.71-.93-.48-1.65-1.13-2.17-1.95-.51-.83-.77-1.77-.77-2.82s.25-1.99.75-2.82c.5-.83,1.19-1.47,2.08-1.93.88-.46,1.88-.69,2.99-.69,1.04,0,1.99.21,2.85.63.86.42,1.54,1.04,2.05,1.86.51.82.76,1.81.76,2.99,0,.13,0,.28-.02.45-.01.17-.03.33-.04.47h-8.37v-1.95h6.4l-1.41.55c.01-.48-.08-.9-.26-1.25-.19-.35-.45-.62-.78-.82s-.72-.29-1.16-.29-.83.1-1.16.29-.59.47-.77.83c-.18.36-.27.78-.27,1.26v.57c0,.52.11.97.32,1.35.21.38.52.67.93.87s.88.3,1.44.3c.52,0,.97-.07,1.34-.22.37-.15.74-.38,1.1-.69l1.95,2.03c-.51.56-1.13.99-1.87,1.28-.74.29-1.62.44-2.63.44Z"/>
      <path class="cls-3" d="m229.66,139.04v-2.19l5.93-6.83.62,1.19h-6.42v-2.75h9.43v2.17l-5.95,6.85-.62-1.21h6.77v2.77h-9.76Z"/>
      <path class="cls-3" d="m246.91,139.04v-13.66h6.99c1.8,0,3.14.33,4.02.99.88.66,1.33,1.52,1.33,2.59,0,.7-.19,1.32-.56,1.84-.37.53-.89.94-1.56,1.25s-1.47.46-2.39.46l.39-.94c.96,0,1.8.15,2.52.44.72.29,1.27.72,1.67,1.27.4.55.6,1.23.6,2.02,0,1.18-.48,2.1-1.43,2.76-.96.66-2.35.99-4.19.99h-7.38Zm3.83-2.79h3.24c.66,0,1.17-.11,1.51-.34s.52-.58.52-1.04-.17-.82-.52-1.04c-.34-.23-.85-.34-1.51-.34h-3.51v-2.67h2.93c.65,0,1.14-.11,1.46-.33.33-.22.49-.55.49-1s-.16-.77-.49-.99c-.33-.21-.81-.32-1.46-.32h-2.65v8.08Z"/>
      <path class="cls-3" d="m265.08,139.21c-.85,0-1.56-.14-2.15-.43-.59-.29-1.03-.68-1.34-1.17-.31-.49-.46-1.05-.46-1.66,0-.65.17-1.21.5-1.69.33-.47.84-.84,1.53-1.09.69-.25,1.58-.38,2.67-.38h2.5v1.93h-1.99c-.6,0-1.02.1-1.26.29-.24.2-.36.46-.36.78s.12.59.37.78c.25.19.59.29,1.01.29.4,0,.77-.1,1.1-.3s.58-.51.73-.93l.51,1.37c-.2.73-.58,1.28-1.14,1.65-.57.37-1.31.56-2.23.56Zm3.12-.18v-1.97l-.25-.49v-3.63c0-.59-.18-1.04-.54-1.36-.36-.32-.93-.48-1.71-.48-.51,0-1.02.08-1.54.24-.52.16-.96.39-1.33.67l-1.25-2.52c.6-.39,1.32-.69,2.16-.91.84-.21,1.68-.32,2.51-.32,1.72,0,3.05.39,3.99,1.18s1.42,2.02,1.42,3.7v5.87h-3.45Z"/>
      <path class="cls-3" d="m274,139.04v-10.58h3.53v3.08l-.53-.88c.31-.79.82-1.39,1.52-1.79.7-.4,1.55-.6,2.56-.6v3.34c-.17-.03-.32-.04-.44-.05-.12,0-.26,0-.4,0-.75,0-1.37.21-1.83.62-.47.41-.7,1.08-.7,2v4.86h-3.71Z"/>
      <path class="cls-3" d="m282.61,139.04v-10.58h3.53v3.08l-.53-.88c.31-.79.82-1.39,1.52-1.79.7-.4,1.55-.6,2.56-.6v3.34c-.17-.03-.32-.04-.44-.05-.12,0-.26,0-.4,0-.75,0-1.37.21-1.83.62-.47.41-.7,1.08-.7,2v4.86h-3.71Z"/>
      <path class="cls-3" d="m293.91,139.21c-.85,0-1.56-.14-2.15-.43-.59-.29-1.03-.68-1.34-1.17-.31-.49-.46-1.05-.46-1.66,0-.65.17-1.21.5-1.69.33-.47.84-.84,1.53-1.09.69-.25,1.58-.38,2.67-.38h2.5v1.93h-1.99c-.6,0-1.02.1-1.26.29-.24.2-.36.46-.36.78s.12.59.37.78c.25.19.59.29,1.01.29.4,0,.77-.1,1.1-.3s.58-.51.73-.93l.51,1.37c-.2.73-.58,1.28-1.14,1.65-.57.37-1.31.56-2.23.56Zm3.12-.18v-1.97l-.25-.49v-3.63c0-.59-.18-1.04-.54-1.36-.36-.32-.93-.48-1.71-.48-.51,0-1.02.08-1.54.24-.52.16-.96.39-1.33.67l-1.25-2.52c.6-.39,1.32-.69,2.16-.91.84-.21,1.68-.32,2.51-.32,1.72,0,3.05.39,3.99,1.18s1.42,2.02,1.42,3.7v5.87h-3.45Z"/>
      <path class="cls-3" d="m302.28,139.04v-2.19l5.93-6.83.62,1.19h-6.42v-2.75h9.43v2.17l-5.95,6.85-.62-1.21h6.77v2.77h-9.76Z"/>
      <path class="cls-3" d="m317.02,139.21c-.85,0-1.56-.14-2.15-.43-.59-.29-1.03-.68-1.34-1.17-.31-.49-.46-1.05-.46-1.66,0-.65.17-1.21.5-1.69.33-.47.84-.84,1.53-1.09.69-.25,1.58-.38,2.67-.38h2.5v1.93h-1.99c-.6,0-1.02.1-1.26.29-.24.2-.36.46-.36.78s.12.59.37.78c.25.19.59.29,1.01.29.4,0,.77-.1,1.1-.3s.58-.51.73-.93l.51,1.37c-.2.73-.58,1.28-1.14,1.65-.57.37-1.31.56-2.23.56Zm3.12-.18v-1.97l-.25-.49v-3.63c0-.59-.18-1.04-.54-1.36-.36-.32-.93-.48-1.71-.48-.51,0-1.02.08-1.54.24-.52.16-.96.39-1.33.67l-1.25-2.52c.6-.39,1.32-.69,2.16-.91.84-.21,1.68-.32,2.51-.32,1.72,0,3.05.39,3.99,1.18s1.42,2.02,1.42,3.7v5.87h-3.45Z"/>
    </g>
    <path class="cls-5" d="m264.55,105.38V3.73c0-1.85,1.5-3.36,3.35-3.36l55.51-.19c16.68-.77,21.67.96,28.76,6.9,7.17,6.01,9.39,14.38,8.82,22.43-.37,5.2-2.92,9.2-5.56,13.42-5.75,9.2-13.42,9.01-18.41,10.93-2.1.81-3.1,1.63-3.97,2.34-2.65,2.16-6.46-.55-5.29-3.76h0c.48-1.31,1.71-2.19,3.11-2.22,6.35-.11,9.65-.6,14.97.95,11.89,3.45,13.43,7.99,16.57,12.26,3.14,4.27,4.94,10.14,5.09,16.13.19,7.27-2.8,15.78-9.59,21.46-11.7,9.78-19.35,7.48-33.36,7.48l-56.64.25c-1.86,0-3.38-1.5-3.38-3.36Zm34.01-26.32c0,1.86,1.51,3.36,3.36,3.36h19.58c3.77,0,5.43-.26,7.04-1.95,2.79-2.92,3.08-3.98,2.67-6.6-.38-2.41-.6-3.83-2.41-5.33-1.79-1.49-3.91-2.61-7.68-2.61l-22.56.3v-23.21l18.43-.24c3.87,0,5.73-.26,7.24-1.9,1.4-1.52,2.18-3.21,2.18-5.67s-1.41-4.98-3.2-6.26c-1.79-1.28-4.17-1.73-8.04-1.73l-13.31.24c-1.83.03-3.3,1.53-3.3,3.36v48.25Z"/>
    <path class="cls-2" d="m.16,81.23L0,105.89c-.01,2.04,1.64,3.69,3.67,3.69l37.59-.07c2.02,0,3.66-1.65,3.66-3.67l-.03-45.02c0-2.78-2.98-4.55-5.43-3.22L2.07,78.04c-1.17.64-1.9,1.86-1.91,3.2Z"/>
    <path class="cls-4" d="m89.02,30.66l-36.57,19.83c-1.41.77-2.29,2.24-2.3,3.85l-.18,50.84c0,2.43,1.96,4.41,4.39,4.41h36.75c2.43,0,4.39-1.97,4.39-4.39V34.52c0-3.33-3.56-5.45-6.49-3.86Z"/>
    <path class="cls-1" d="m101.9,23.47c24.46-12.91,28.92-15.52,38.56-20.87,1.51-.84,3.36.25,3.36,1.97,0,7.62.1,13.08.09,21.01,0,1.25-1.02,2.26-2.27,2.26-12.9-.04-25.8-.07-38.7-.11-1.06,0-1.97-.74-2.2-1.77h0c-.22-.99.25-2.01,1.15-2.49Z"/>
    <rect class="cls-1" x="100.92" y="34.03" width="42.91" height="75.08" rx="7.29" ry="7.29"/>
    <path class="cls-5" d="m251.3,49.02h-22.49s-18.13.06-18.13.06h-.88s-3,.01-3,.01c-1.06,0-1.92.86-1.92,1.92v15.66c0,1.23.99,2.22,2.22,2.22h15.54c.66,0,1.13.51,1.17,1.08.03.29-.05.6-.28.86-3.2,3.77-7.5,6.58-12.41,7.91-1.99.54-4.07.83-6.22.86h-.03c-.08,0-.17,0-.26,0-2.2,0-4.33-.29-6.36-.83-6.49-1.72-11.93-6-15.18-11.7-.21-.36-.4-.73-.59-1.1-.14-.29-.29-.59-.42-.88-.03-.06-.05-.11-.08-.17-1.25-2.79-2-5.87-2.13-9.1,0-.04,0-.08,0-.13-.01-.23-.04-.49-.04-.73v-.47c0-.06,0-.12,0-.19,0-1.77.19-3.49.53-5.15.36-1.67.88-3.28,1.55-4.8.15-.34.3-.67.46-1,1.46-2.96,3.49-5.58,5.95-7.73.77-.67,1.58-1.3,2.43-1.87,2.45-1.65,5.2-2.88,8.16-3.58,1.83-.43,3.74-.66,5.7-.66.09,0,.17,0,.26,0h.03c1.81.02,3.58.24,5.28.63,2.96.68,5.72,1.89,8.18,3.53.85.57,1.66,1.19,2.44,1.85.17.15.35.31.52.46.09.08.18.16.27.25.12.11.23.22.35.33.06.06.12.12.18.18.12.12.25.24.36.37.08.08.15.16.23.24.34.36.66.72.97,1.1.05.06.09.11.14.17.12.15.25.3.36.45.05.06.1.13.15.2.03.03.05.07.08.1.5.66,1.39.87,2.11.47l.88-.49,2.61-1.44,7.84-4.32,10.86-5.98c.49-.27.78-.75.84-1.26-.04-.2-.11-.39-.23-.57-4.85-7.43-11.48-13.59-19.28-17.88-7.47-4.11-16.02-6.49-25.11-6.64-.29,0-.58,0-.86,0-20.04,0-37.53,10.92-46.85,27.13-1.1,1.91-2.09,3.91-2.95,5.96-1.29,3.06-2.3,6.26-3,9.58-.37,1.73-.66,3.5-.86,5.29-.22,1.92-.33,3.88-.34,5.86v.19c0,.73.01,1.46.04,2.18,0,.12.01.23.02.35.17,3.01.58,5.97,1.22,8.83.96,4.29,2.44,8.4,4.36,12.24.31.63.64,1.26.98,1.87.38.7.78,1.39,1.19,2.06,9.48,15.57,26.61,25.97,46.17,25.97.29,0,.58,0,.86,0,9.09-.14,17.64-2.53,25.11-6.64,8.4-4.62,15.44-11.4,20.36-19.6.41-.68.8-1.37,1.18-2.07.25-.45.48-.91.71-1.37.11-.23.17-.48.17-.74v.39s.01-.03.02-.04c0-.04,0-.08,0-.12v-9.72h.03v-18.7c0-.65-.53-1.17-1.17-1.17Zm-23.6,14.28c-.04.09-.07.18-.11.27.07-.19.11-.39.11-.6v.32Z"/>
  </g>
</svg>