<?xml version="1.0" encoding="UTF-8"?>
<svg id="Capa_2" data-name="Capa 2" xmlns="http://www.w3.org/2000/svg" viewBox="0 0 95.82 96">
  <defs>
    <style>
      .cls-1 {
        stroke-width: 0px;
      }
    </style>
  </defs>
  <g id="Capa_1-2" data-name="Capa 1">
    <g>
      <path class="cls-1" d="m95.82,48.75c-1.13,1.88-2.85,2.47-4.93,2.25-.28-.03-.56,0-.84.01-.06,0-.12.04-.26.09-.24,2.07-.47,4.17-.72,6.28-.3,2.61-.55,5.22-.92,7.81-.28,2.02-2.09,3.4-3.97,3.19-2.08-.23-3.56-1.85-3.39-3.98.27-3.27.68-6.52,1.04-9.78.27-2.45.57-4.9.84-7.35.27-2.46,1.68-3.76,4.14-3.77.53,0,1.05,0,1.63,0v-7.45H7.57v7.45c.39,0,.79,0,1.18,0,20.69,0,41.37,0,62.06,0,1.27,0,2.44.21,3.33,1.18,1.04,1.13,1.34,2.47.78,3.91-.55,1.44-1.66,2.23-3.19,2.39-.4.04-.81.02-1.22.02-18.5,0-37,0-55.5,0h-1.18c.3,2.53.59,4.94.88,7.35.78,6.54,1.56,13.08,2.36,19.62.19,1.58.33,3.17.66,4.73.62,2.96,3.06,5.2,6.04,5.67.58.09,1.18.13,1.77.13,15.09,0,30.19,0,45.28,0,3.68,0,6.37-1.78,7.55-5.03.24-.67.33-1.39.51-2.09.52-1.99,2.36-3.17,4.35-2.79,1.93.37,3.25,2.25,2.98,4.25-.9,6.82-5.98,11.96-12.85,13-.15.02-.28.11-.43.16H23.44c-.21-.06-.41-.14-.62-.17-6.53-.89-11.88-6.26-12.69-12.85-1.16-9.45-2.27-18.91-3.41-28.37-.14-1.2-.31-2.39-.47-3.61-.76,0-1.41,0-2.07,0-2.67-.01-4.19-1.51-4.19-4.18,0-4.72,0-9.44,0-14.16,0-2.66,1.52-4.16,4.2-4.16,4,0,8-.02,12,.01.64,0,1.01-.22,1.38-.72,6.22-8.49,12.46-16.97,18.68-25.46C37.04,1.27,37.9.39,39.19,0,39.69,0,40.19,0,40.69,0c.44.22.91.4,1.32.68,1.87,1.28,2.13,3.61.62,5.67-5.21,7.1-10.42,14.19-15.63,21.29-.18.24-.33.49-.54.8h43.24c-.23-.34-.39-.59-.57-.84-3.68-5.01-7.36-10.01-11.04-15.02-1.59-2.16-3.21-4.31-4.76-6.5-1.63-2.29-.78-4.92,1.85-5.91.11-.04.22-.11.33-.17.5,0,1,0,1.5,0,1.27.41,2.13,1.3,2.9,2.36,6.19,8.46,12.41,16.9,18.6,25.36.4.55.8.81,1.52.8,3.62-.04,7.24.05,10.86-.05,2.09-.06,3.8.4,4.93,2.28v18Z"/>
      <path class="cls-1" d="m36.75,69.82c0,2.37.01,4.75,0,7.12-.01,2.38-1.57,4.05-3.75,4.05-2.18,0-3.74-1.67-3.75-4.05-.01-4.81-.01-9.62,0-14.43,0-2.36,1.62-4.03,3.79-4,2.14.03,3.68,1.68,3.7,4,.02,2.44,0,4.87,0,7.31Z"/>
      <path class="cls-1" d="m51.75,69.79c0,2.37,0,4.75,0,7.12-.01,2.39-1.54,4.06-3.71,4.08-2.21.02-3.78-1.67-3.78-4.11,0-4.84-.02-9.68,0-14.53,0-1.97,1.26-3.45,3.1-3.8,1.65-.31,3.4.6,4.04,2.19.23.56.33,1.21.33,1.82.04,2.4.02,4.81.02,7.22Z"/>
      <path class="cls-1" d="m66.75,69.83c0,2.37.01,4.75,0,7.12-.01,2.37-1.58,4.05-3.76,4.04-2.17,0-3.73-1.68-3.74-4.06-.01-4.78-.01-9.56,0-14.34,0-2.39,1.54-4.07,3.71-4.09,2.21-.02,3.78,1.67,3.79,4.11,0,2.41,0,4.81,0,7.22Z"/>
    </g>
  </g>
</svg>