<?xml version="1.0" encoding="UTF-8"?>
<svg id="Capa_2" data-name="Capa 2" xmlns="http://www.w3.org/2000/svg" viewBox="0 0 97.05 95.98">
  <defs>
    <style>
      .cls-1 {
        stroke-width: 0px;
      }
    </style>
  </defs>
  <g id="Capa_1-2" data-name="Capa 1">
    <path class="cls-1" d="m0,88.56c0-.88,0-1.77,0-2.65.57-2.94,2.46-4.99,4.5-7.02,10.06-10,20.07-20.05,30.11-30.07.26-.26.63-.43.98-.66-.46-.48-.69-.73-.93-.97C24.17,36.68,13.67,26.19,3.17,15.68.85,13.36.02,10.53.68,7.35,1.43,3.81,3.62,1.43,7.09.42c3.47-1.01,6.56-.16,9.13,2.4,10.42,10.35,20.84,20.71,31.24,31.08.33.33.55.76.83,1.18.49-.46.72-.67.94-.89,7.26-7.26,14.52-14.52,21.78-21.78,3.35-3.35,6.61-6.8,10.11-9.99,3.62-3.31,9.34-2.84,12.63.77,3.34,3.66,3.23,9.18-.26,12.67-10.39,10.39-20.77,20.78-31.17,31.16-.26.26-.64.4-1.14.71.59.49.88.69,1.12.93,10.08,10.02,20.15,20.06,30.26,30.05,2.05,2.03,3.93,4.09,4.48,7.03v2.46c-.08.3-.16.6-.24.9-.93,3.51-3.1,5.87-6.67,6.62-3.71.77-7.04-.04-9.81-2.84-10.34-10.39-20.71-20.73-31.06-31.1-.26-.26-.42-.63-.63-.94l-.43.02c-.22.31-.39.67-.65.94-10.29,10.3-20.61,20.57-30.85,30.91-2.38,2.41-5.13,3.42-8.43,3.25-4-.21-7.06-2.7-8.02-6.58-.07-.27-.16-.53-.25-.79Z"/>
  </g>
</svg>