<?xml version="1.0" encoding="UTF-8"?>
<svg id="Capa_2" data-name="Capa 2" xmlns="http://www.w3.org/2000/svg" viewBox="0 0 195.08 194.81">
  <defs>
    <style>
      .cls-1 {
        fill: #e63120;
      }

      .cls-1, .cls-2 {
        stroke-width: 0px;
      }

      .cls-2 {
        fill: #fefdfc;
      }
    </style>
  </defs>
  <g id="Capa_1-2" data-name="Capa 1">
    <g>
      <path class="cls-1" d="m151.37,179.43c-.57.13-.99-.16-1.43-.31-4.34-1.47-8.68-2.95-13-4.46-.72-.25-.99-.18-1.24.61-1.41,4.53-2.91,9.03-4.33,13.55-.27.85-.47.96-1.24.47-3.89-2.5-7.84-4.92-11.73-7.43-.85-.55-1.23-.55-1.78.39-2.36,4.03-4.83,7.99-7.21,12.01-.44.74-.67.7-1.23.12-3.31-3.41-6.66-6.78-9.97-10.19-.52-.54-.81-.61-1.37-.02-3.27,3.39-6.62,6.71-9.88,10.12-.75.79-1,.55-1.45-.21-2.39-4.01-4.83-7.99-7.21-12-.43-.72-.72-.8-1.44-.35-3.96,2.54-7.98,5-11.93,7.56-.87.57-1.03.31-1.29-.51-1.41-4.49-2.9-8.95-4.28-13.44-.27-.87-.6-.88-1.32-.64-4.44,1.53-8.91,3.01-13.34,4.58-.85.3-1.09.21-1.15-.7-.32-4.58-.7-9.16-1.01-13.74-.07-.99-.18-1.44-1.43-1.3-4.64.54-9.3.89-13.94,1.37-.84.09-.92-.11-.79-.87.77-4.68,1.46-9.38,2.24-14.06.14-.86-.13-1.1-.93-1.2-4.67-.61-9.33-1.3-14-1.88-1.02-.13-.92-.45-.62-1.19,1.75-4.24,3.44-8.5,5.22-12.72.41-.96.39-1.38-.72-1.78-4.34-1.59-8.62-3.33-12.95-4.96-.84-.31-.91-.56-.38-1.28,2.7-3.71,5.31-7.49,8.05-11.17.76-1.02.54-1.39-.41-2.02-3.79-2.52-7.49-5.16-11.27-7.69-.84-.56-.76-.82-.06-1.42,3.52-3.02,6.97-6.11,10.5-9.11.78-.66.73-1.02.08-1.73-3.15-3.4-6.22-6.87-9.36-10.27-.63-.68-.64-.93.23-1.38,4.18-2.15,8.32-4.4,12.5-6.55.78-.4.79-.71.4-1.41-2.45-4.38-4.85-8.79-7.32-13.29,3.86-1,7.63-1.98,11.4-2.95,1.12-.29,2.22-.65,3.36-.86.81-.15.91-.42.69-1.2-1.29-4.52-2.49-9.07-3.78-13.59-.25-.89-.17-1.14.83-1.14,4.59-.03,9.19-.18,13.78-.22,1.01,0,1.37-.18,1.31-1.31-.24-4.55-.31-9.1-.57-13.65-.07-1.27.34-1.3,1.35-1.07,4.43,1,8.9,1.88,13.32,2.93,1.1.26,1.26-.14,1.42-.99.88-4.58,1.81-9.15,2.67-13.74.15-.82.37-.92,1.11-.56,4.3,2.09,8.64,4.11,12.93,6.21.69.34.9.2,1.19-.45,1.87-4.18,3.79-8.35,5.69-12.52q.65-1.43,1.93-.41c3.55,2.85,7.11,5.68,10.63,8.57.64.52.9.42,1.35-.18,2.89-3.77,5.83-7.5,8.71-11.28.52-.68.75-.66,1.25,0,2.86,3.74,5.79,7.44,8.64,11.19.53.7.83.79,1.55.19,3.85-3.17,7.76-6.27,11.75-9.49.39.81.75,1.54,1.09,2.27,1.76,3.84,3.53,7.68,5.24,11.54.34.77.59.88,1.36.51,4.51-2.2,9.05-4.34,13.71-6.56.59,2.96,1.17,5.82,1.74,8.69.42,2.11.86,4.22,1.22,6.34.13.75.39.85,1.11.69,4.94-1.1,9.89-2.14,14.67-3.17,0,2.73.04,5.44-.01,8.15-.04,2.36-.13,4.71-.29,7.06-.06.84.22.99.98,1,4.59.06,9.19.16,13.78.25.44,0,.87,0,1.44,0-1.03,3.72-2.03,7.32-3.02,10.92-.35,1.27-.67,2.55-1.07,3.8-.24.73-.12,1,.69,1.2,4.52,1.12,9.03,2.33,13.54,3.5.38.1.75.21,1.21.34-2.17,3.96-4.3,7.83-6.42,11.71-.44.8-1.32,1.74-1.15,2.39.16.62,1.43.96,2.23,1.38,3.66,1.94,7.32,3.89,11.01,5.79.76.39.77.65.21,1.26-3.13,3.41-6.2,6.89-9.36,10.27-.79.84-.63,1.24.15,1.91,3.52,3.01,6.97,6.1,10.49,9.12.68.58.54.8-.11,1.24-3.93,2.67-7.82,5.39-11.75,8.05-.64.43-.72.7-.25,1.36,2.77,3.81,5.46,7.68,8.23,11.49.55.75.57,1-.37,1.35-4.41,1.64-8.77,3.38-13.17,5.04-.78.29-.9.59-.58,1.36,1.79,4.3,3.52,8.64,5.3,12.94.33.79.49,1.16-.67,1.3-4.63.56-9.25,1.25-13.88,1.87-.69.09-1.11.16-.95,1.14.78,4.52,1.43,9.06,2.14,13.59.23,1.44.25,1.45-1.17,1.32-4.61-.42-9.22-.83-13.83-1.32-.85-.09-.97.15-1.03.9-.37,5.01-.79,10.02-1.19,15.02Zm-55.92-44.11c-.07-1.07-.09-2.07-.22-3.06-.18-1.38-.49-2.74-.91-4.08-3.25-10.34-11.5-15.95-21.69-14.4-11.64,1.77-19.38,11.68-17.56,22.76,1.14,6.92,4.37,12.7,10.57,16.32,6.58,3.85,13.36,3.4,19.84-.21,6.73-3.74,9.72-9.84,9.97-17.34Zm-46.96-51.79c-.58-2.24-1.04-4.29-1.67-6.29-.34-1.07-.15-1.5.94-1.87,4.98-1.68,9.92-3.48,14.89-5.2.67-.23.87-.44.62-1.18-.7-2.07-1.33-4.17-1.93-6.28-.17-.6-.33-.74-.96-.52-7.62,2.71-15.25,5.38-22.88,8.05-.5.18-.67.34-.51.93,1.64,5.95,3.25,11.92,4.84,17.88.13.5.36.69.86.79,2.04.39,4.06.81,6.09,1.26.42.09.62.02.87-.35,1.82-2.72,4.54-4.08,7.62-4.74,3.32-.7,5.71.77,6.78,3.98,1,3,.01,5.22-3.04,6.76-3.91,1.98-7.8,2.16-11.59-.28-.69-.44-1.03-.37-1.49.3-1.03,1.51-2.11,3.01-3.29,4.41-.71.85-.51,1.2.31,1.78,8.23,5.77,20.83,2.37,25.82-4.56,5.28-7.33.88-16.8-4.37-19.3-3.89-1.85-7.75-1.4-11.62-.01-2.43.87-4.49,2.32-6.3,4.42Zm52.86-4.14c-.05-5.41-1.56-10.45-4-15.23-1.43-2.8-3.26-5.29-5.7-7.31-8.33-6.9-18.13-1.64-20.6,6.17-1.32,4.19-1.09,8.35.04,12.5,1.61,5.89,4.03,11.36,8.69,15.53,6.47,5.78,15.87,4.24,19.71-3.21,1.36-2.64,1.9-5.48,1.85-8.45Zm33.57,55.18c.29-.09.52-.16.75-.24,2.33-.82,4.65-1.68,6.99-2.45.8-.26.93-.56.64-1.36-1.59-4.38-3.09-8.79-4.67-13.17-.3-.82-.2-1.13.66-1.43,4.52-1.54,9.01-3.18,13.53-4.73.76-.26.99-.5.68-1.31-.71-1.82-1.38-3.65-1.95-5.52-.27-.89-.62-.97-1.42-.67-4.45,1.61-8.94,3.14-13.39,4.78-.92.34-1.22.12-1.48-.75-.5-1.64-1.05-3.27-1.72-4.84-.41-.97-.1-1.25.77-1.55,5.8-1.99,11.57-4.05,17.37-6.05.76-.26.93-.56.64-1.33-.73-1.9-1.43-3.81-2.03-5.75-.25-.81-.56-.82-1.26-.57-8.82,3.13-17.64,6.24-26.48,9.32-.77.27-.93.54-.65,1.34,2.04,5.7,4.03,11.42,6.04,17.13,2.14,6.09,4.29,12.17,6.44,18.26.12.33.06.83.53.9Zm-13.26-29c-.04-.11-.06-.19-.09-.27-.77-2.18-1.55-4.36-2.29-6.54-.23-.68-.64-.42-1.03-.28-8.9,3.13-17.8,6.28-26.72,9.39-.7.25-.8.49-.56,1.17,4.2,11.87,8.37,23.74,12.53,35.63.24.69.49.82,1.19.56,2.31-.87,4.64-1.69,6.99-2.45.81-.27,1.03-.53.71-1.42-1.56-4.26-3.01-8.57-4.56-12.84-.38-1.04-.27-1.47.85-1.85,4.49-1.51,8.94-3.15,13.43-4.68.67-.23.77-.45.54-1.08-.71-1.9-1.41-3.81-2.01-5.75-.26-.83-.59-.87-1.34-.61-4.5,1.62-9.02,3.15-13.51,4.79-.88.32-1.16.13-1.41-.7-.49-1.6-.99-3.21-1.68-4.72-.52-1.15-.11-1.43.9-1.78,5.76-1.98,11.51-4.02,17.25-6.05.31-.11.73-.09.81-.51Zm-11.04-17.92c1.8-.63,3.41-1.22,5.04-1.74.7-.22.98-.63,1.13-1.32,3.45-15.36,6.93-30.71,10.38-46.06.07-.3.35-.64.02-1.01-1.58.56-3.14,1.14-4.73,1.65-.64.21-.93.53-1.08,1.21-2.19,9.76-4.43,19.51-6.65,29.26-1.35,5.94-2.71,11.87-4.11,18.02Zm2.33-29.29c-.31-3.73-1.48-7.48-4.56-10.37-1.84-1.73-4.06-2.39-6.52-1.55-2.55.87-4.2,2.73-4.58,5.37-.73,5.18.98,9.66,4.81,13.14,3.26,2.96,8.08,1.85,9.98-2.03.65-1.32.82-2.74.87-4.55Zm28.18,11.77c-.22-3.2-1.39-6.91-4.36-9.83-1.79-1.76-3.97-2.52-6.47-1.76-2.64.81-4.36,2.63-4.76,5.32-.8,5.37,1.04,9.9,5.06,13.48,1.42,1.27,3.24,1.68,5.16,1.27,3.41-.74,5.37-3.54,5.37-8.47Z"/>
      <path class="cls-2" d="m95.45,135.32c-.25,7.5-3.24,13.6-9.97,17.34-6.48,3.6-13.26,4.06-19.84.21-6.2-3.63-9.43-9.4-10.57-16.32-1.82-11.08,5.92-20.99,17.56-22.76,10.18-1.55,18.44,4.06,21.69,14.4.42,1.33.73,2.7.91,4.08.13.99.15,1.99.22,3.06Zm-31.15-1.42c.09,3.1,1.33,6.54,3.96,9.37,2.7,2.9,6.03,4.09,9.97,3.13,3.96-.97,6.45-3.51,7.53-7.39,1.23-4.44.04-8.45-2.57-12.07-2.93-4.06-7.34-5.48-11.91-3.98-4.38,1.43-6.96,5.2-6.96,10.94Z"/>
      <path class="cls-2" d="m48.49,83.52c1.81-2.11,3.87-3.55,6.3-4.42,3.87-1.39,7.73-1.84,11.62.01,5.25,2.49,9.65,11.97,4.37,19.3-4.99,6.93-17.59,10.33-25.82,4.56-.82-.58-1.02-.93-.31-1.78,1.18-1.4,2.26-2.9,3.29-4.41.46-.68.8-.75,1.49-.3,3.79,2.44,7.68,2.26,11.59.28,3.05-1.55,4.04-3.76,3.04-6.76-1.07-3.21-3.47-4.69-6.78-3.98-3.08.66-5.8,2.02-7.62,4.74-.25.37-.45.44-.87.35-2.02-.45-4.05-.88-6.09-1.26-.51-.1-.73-.29-.86-.79-1.59-5.97-3.2-11.93-4.84-17.88-.16-.58,0-.75.51-.93,7.63-2.67,15.26-5.34,22.88-8.05.63-.23.79-.08.96.52.6,2.11,1.23,4.21,1.93,6.28.25.74.05.94-.62,1.18-4.97,1.72-9.91,3.52-14.89,5.2-1.1.37-1.28.8-.94,1.87.63,2,1.08,4.05,1.67,6.29Z"/>
      <path class="cls-2" d="m101.34,79.39c.04,2.96-.49,5.8-1.85,8.45-3.84,7.45-13.25,9-19.71,3.21-4.66-4.17-7.08-9.65-8.69-15.53-1.13-4.15-1.36-8.31-.04-12.5,2.46-7.82,12.27-13.07,20.6-6.17,2.44,2.02,4.27,4.51,5.7,7.31,2.44,4.79,3.95,9.82,4,15.23Zm-8.12,2.02c-.03-.52-.02-1.04-.1-1.55-.96-5.48-2.94-10.58-5.9-15.29-.49-.78-1.1-1.47-1.85-2.03-2.25-1.69-5.19-.83-6.14,1.82-.5,1.38-.53,2.81-.35,4.25.56,4.44,2.06,8.59,4.04,12.57.82,1.65,1.81,3.2,3.27,4.38,1.54,1.25,3.16,1.45,4.77.55,1.84-1.03,2.28-2.76,2.25-4.7Z"/>
      <path class="cls-2" d="m134.91,134.57c-.47-.07-.42-.57-.53-.9-2.16-6.08-4.3-12.17-6.44-18.26-2.01-5.71-4-11.43-6.04-17.13-.28-.79-.13-1.07.65-1.34,8.83-3.08,17.66-6.19,26.48-9.32.7-.25,1.01-.24,1.26.57.61,1.94,1.3,3.85,2.03,5.75.3.77.12,1.07-.64,1.33-5.8,2-11.57,4.06-17.37,6.05-.88.3-1.18.59-.77,1.55.67,1.57,1.22,3.2,1.72,4.84.27.88.56,1.09,1.48.75,4.45-1.63,8.93-3.16,13.39-4.78.81-.29,1.15-.22,1.42.67.57,1.87,1.23,3.7,1.95,5.52.32.81.08,1.05-.68,1.31-4.52,1.55-9.01,3.18-13.53,4.73-.86.29-.96.6-.66,1.43,1.59,4.38,3.09,8.79,4.67,13.17.29.79.16,1.09-.64,1.36-2.35.77-4.66,1.63-6.99,2.45-.23.08-.45.15-.75.24Z"/>
      <path class="cls-2" d="m121.65,105.57c-.08.43-.5.4-.81.51-5.75,2.03-11.49,4.07-17.25,6.05-1.01.35-1.42.63-.9,1.78.69,1.52,1.19,3.13,1.68,4.72.25.83.53,1.02,1.41.7,4.49-1.64,9.02-3.17,13.51-4.79.75-.27,1.08-.23,1.34.61.6,1.94,1.3,3.85,2.01,5.75.23.63.13.85-.54,1.08-4.48,1.54-8.93,3.18-13.43,4.68-1.12.38-1.23.81-.85,1.85,1.56,4.26,3,8.57,4.56,12.84.33.89.1,1.15-.71,1.42-2.35.77-4.68,1.59-6.99,2.45-.7.26-.95.13-1.19-.56-4.16-11.88-8.33-23.76-12.53-35.63-.24-.69-.15-.93.56-1.17,8.91-3.11,17.81-6.26,26.72-9.39.39-.14.8-.39,1.03.28.74,2.19,1.52,4.36,2.29,6.54.03.07.05.15.09.27Z"/>
      <path class="cls-2" d="m110.61,87.65c1.4-6.14,2.76-12.08,4.11-18.02,2.22-9.75,4.46-19.5,6.65-29.26.15-.68.44-1.01,1.08-1.21,1.59-.51,3.15-1.09,4.73-1.65.33.37.05.72-.02,1.01-3.45,15.36-6.93,30.71-10.38,46.06-.16.69-.43,1.1-1.13,1.32-1.63.51-3.24,1.11-5.04,1.74Z"/>
      <path class="cls-2" d="m112.93,58.37c-.05,1.81-.22,3.22-.87,4.55-1.9,3.88-6.72,4.99-9.98,2.03-3.83-3.48-5.54-7.95-4.81-13.14.37-2.64,2.02-4.49,4.58-5.37,2.46-.84,4.68-.18,6.52,1.55,3.08,2.89,4.25,6.64,4.56,10.37Zm-10.81-5.35c.38,2.69,1.2,5.3,2.71,7.65.51.79,1.17,1.49,2.27,1.06,1.05-.4,1.1-1.31.94-2.21-.49-2.73-1.48-5.28-2.93-7.64-.44-.72-1.09-1.22-2.01-.92-.98.32-.89,1.2-.97,2.06Z"/>
      <path class="cls-2" d="m141.12,70.14c0,4.94-1.95,7.73-5.37,8.47-1.92.42-3.74,0-5.16-1.27-4.02-3.58-5.86-8.11-5.06-13.48.4-2.69,2.12-4.51,4.76-5.32,2.5-.76,4.67,0,6.47,1.76,2.97,2.92,4.14,6.63,4.36,9.83Zm-4.76,2.04c-.58-2.98-1.5-5.85-3.23-8.4-.11-.16-.27-.29-.43-.41-.93-.69-1.89-.36-2.25.75-.23.72-.08,1.43.07,2.13.54,2.47,1.27,4.86,2.79,6.93.48.66,1.14,1.03,1.98.73.78-.28,1.08-.9,1.06-1.73Z"/>
      <path class="cls-1" d="m64.3,133.89c0-5.74,2.58-9.51,6.96-10.94,4.57-1.5,8.98-.08,11.91,3.98,2.61,3.62,3.8,7.62,2.57,12.07-1.07,3.89-3.57,6.43-7.53,7.39-3.93.96-7.27-.23-9.97-3.13-2.63-2.83-3.87-6.26-3.96-9.37Z"/>
      <path class="cls-1" d="m93.22,81.41c.02,1.94-.41,3.66-2.25,4.7-1.61.9-3.23.7-4.77-.55-1.46-1.18-2.45-2.74-3.27-4.38-1.98-3.98-3.48-8.13-4.04-12.57-.18-1.44-.15-2.87.35-4.25.96-2.64,3.89-3.5,6.14-1.82.74.56,1.36,1.25,1.85,2.03,2.95,4.71,4.93,9.81,5.9,15.29.09.51.07,1.03.1,1.55Z"/>
      <path class="cls-1" d="m102.13,53.01c.08-.86,0-1.74.97-2.06.92-.3,1.56.2,2.01.92,1.45,2.36,2.45,4.91,2.93,7.64.16.89.11,1.8-.94,2.21-1.1.42-1.76-.27-2.27-1.06-1.51-2.35-2.32-4.96-2.71-7.65Z"/>
      <path class="cls-1" d="m136.36,72.18c.01.83-.29,1.45-1.06,1.73-.84.3-1.5-.08-1.98-.73-1.52-2.07-2.25-4.47-2.79-6.93-.15-.7-.3-1.4-.07-2.13.36-1.11,1.32-1.44,2.25-.75.16.12.32.25.43.41,1.73,2.55,2.64,5.42,3.23,8.4Z"/>
    </g>
  </g>
</svg>